<?xml version="1.0" standalone="no"?><!DOCTYPE svg PUBLIC "-//W3C//DTD SVG 1.1//EN" "http://www.w3.org/Graphics/SVG/1.1/DTD/svg11.dtd"><svg class="icon" width="128px" height="128.00px" viewBox="0 0 1024 1024" version="1.1" xmlns="http://www.w3.org/2000/svg"><path d="M400 612m-254 0a254 254 0 1 0 508 0 254 254 0 1 0-508 0Z" fill="#aff5e7" /><path d="M400 612m-190 0a190 190 0 1 0 380 0 190 190 0 1 0-380 0Z" fill="#d7faf3" /><path d="M464.392 843.256c9.208 7.28 19.552 15.648 29.728 24.016A271.256 271.256 0 0 1 400 884c-33.088 0-64.792-5.904-94.12-16.72a1925.464 1925.464 0 0 1 29.728-24.024c20.488 5.704 42.08 8.744 64.392 8.744 21.208 0 41.776-2.752 61.36-7.92zM400 340c150.224 0 272 121.776 272 272 0 106.448-61.144 198.608-150.232 243.28a4844.48 4844.48 0 0 0-27.424-22.536C579.992 796.096 640 711.056 640 612c0-132.552-107.448-240-240-240-132.552 0-240 107.448-240 240 0 99.056 60.008 184.096 145.656 220.744-9.4 7.68-18.832 15.408-27.432 22.544C189.144 810.608 128 718.448 128 612c0-150.224 121.776-272 272-272z" fill="#6a6253" /><path d="M400 612L300 448c61.336-36 116-40.664 164-14a3087.92 3087.92 0 0 1-64 178z" fill="#f5fffd" /><path d="M398.208 815.2c-7.232 0.048-21.04 0.528-32.984 6.4-12.768 6.272-94.328 74.008-109.848 88.76l-0.864 0.84c-12.376 12.16-18.872 12.768-25.072 12.8H202.4c-12.896 0 29.624-25.088 40.96-38.016l0.336-0.384c10.8-12.8 108.488-89.6 121.52-102.4 12.576-12.36 13.008-18.752 13.024-30.696V707.76c0.056-10.288 0.584-15.544 6.152-15.76l0.36-0.008h30.48c6.272 0 6.504 5.936 6.512 17.808v43.952c0.064 11.152 0.904 17.52 13.024 29.44 12.896 12.672 108.768 88.072 121.176 102l0.344 0.4c10.808 12.8 54.32 38.4 41.296 38.4h-27.36c-5.992-0.056-12.352-0.824-24.096-12.168l-0.64-0.632c-13.032-12.8-97.688-83.2-110.72-89.6-11.96-5.88-25.792-6.36-33.016-6.4h-3.552z" fill="#d8d8d8" /><path d="M400 412c110.456 0 200 89.544 200 200 0 90.144-59.632 166.352-141.6 191.336-5.808-4.776-10.928-9.04-15-12.496C524.08 771.336 584 698.664 584 612c0-101.624-82.376-184-184-184s-184 82.376-184 184c0 86.664 59.92 159.336 140.584 178.848-4.056 3.456-9.176 7.712-14.968 12.48C259.632 778.36 200 702.152 200 612c0-110.456 89.544-200 200-200z" fill="#6a6253" /><path d="M400 892a16 16 0 1 1 0 32 16 16 0 0 1 0-32z m95.76-16.88a16 16 0 1 1 10.952 30.064 16 16 0 0 1-10.944-30.072z m-212.032 9.56a16 16 0 1 1 30.072 10.944 16 16 0 0 1-30.08-10.944z m296.256-58.184a16 16 0 1 1 20.56 24.512 16 16 0 0 1-20.56-24.512z m-382.504 1.968a16 16 0 1 1 24.512 20.568 16 16 0 0 1-24.512-20.56zM642.48 752a16 16 0 1 1 27.712 16 16 16 0 0 1-27.712-16z m-506.832-5.856a16 16 0 1 1 16 27.712 16 16 0 0 1-16-27.712z m540.088-85.52a16 16 0 1 1 31.52 5.552 16 16 0 0 1-31.52-5.552zM105.72 647.64a16 16 0 1 1 5.552 31.52 16 16 0 0 1-5.552-31.52zM92.736 557.824a16 16 0 1 1 31.52 5.552 16 16 0 0 1-31.52-5.552z m595.992-12.984a16 16 0 1 1 5.552 31.52 16 16 0 0 1-5.552-31.52zM129.8 456a16 16 0 1 1 27.712 16 16 16 0 0 1-27.712-16z m518.544-5.856a16 16 0 1 1 16 27.712 16 16 0 0 1-16-27.712zM199.44 372.992a16 16 0 1 1 20.568 24.512 16 16 0 0 1-20.56-24.512z m378.56 1.976a16 16 0 1 1 24.512 20.56 16 16 0 0 1-24.512-20.56z m-284.72-56.152a16 16 0 1 1 10.944 30.072 16 16 0 0 1-10.944-30.072z m192.912 9.56a16 16 0 1 1 30.08 10.944 16 16 0 0 1-30.08-10.944zM400 300a16 16 0 1 1 0 32 16 16 0 0 1 0-32z" fill="#ffe17a" /><path d="M396 692c0 26 8 80-20 100-18.664 13.336-70.664 57.336-156 132h-18c108-93.336 164-141.336 168-144C376 776 380 758 380 736v-44h16z" fill="#ffffff" /><path d="M405.056 692c0 26-8 80 20 100 18.672 13.336 70.672 57.336 156 132h18c-108-93.336-164-141.336-168-144-6-4-10-22-10-44v-44h-16z" fill="#a8a8a8" /><path d="M352 668m12 0l72 0q12 0 12 12l0 0q0 12-12 12l-72 0q-12 0-12-12l0 0q0-12 12-12Z" fill="#d8d8d8" /><path d="M428 668a12 12 0 0 1 0 24H416a12 12 0 0 0 0.448-23.992L416 668h12z" fill="#a8a8a8" /><path d="M372 668a12 12 0 0 0 0 24H384a12 12 0 0 1-0.448-23.992L384 668h-12z" fill="#ffffff" /><path d="M384 636h32v32h-32z" fill="#d8d8d8" /><path d="M400 612m-24 0a24 24 0 1 0 48 0 24 24 0 1 0-48 0Z" fill="#f0f0f0" /><path d="M648 252c0 96-40 536-168 688 58.664 5.336 104 5.336 136 0 26.664-85.336 48-186.664 64-304 16-117.336 25.336-249.336 28-396-40-56-60-52-60 12zM772 252c0 96 40 536 168 688-58.664 5.336-104 5.336-136 0-26.664-85.336-48-186.664-64-304-16-117.336-25.336-249.336-28-396 40-56 60-52 60 12z" fill="#f7b3cb" /><path d="M744 244c14.664 240 32 394.664 52 464 20 69.336 44 148 72 236l72-4c-48-80-80.664-154.664-98-224-17.336-69.336-42-226.664-74-472h-24z" fill="#ff8cb4" /><path d="M680 244c-14.664 240-32 394.664-52 464C608 777.336 584 856 556 944l-72-4c48-80 80.664-154.664 98-224 17.336-69.336 42-226.664 74-472h24z" fill="#ffd9e6" /><path d="M776 236a16 16 0 0 1 16 16c0 64.296 13.744 200.84 35.736 320.096 30.408 164.904 73.68 292.504 128.504 357.6 8.328 9.888 2.088 25.064-10.792 26.24l-4.464 0.4c-57.76 5.04-102.864 4.904-135.616-0.56a16 16 0 0 1-12.64-11c-3.176-10.176-6.28-20.568-9.304-31.184l-0.336 0.064c-5.576-30.48-35.392-53.656-71.064-53.656-35.12 0-64.584 22.464-70.8 52.272l-0.176 0.904-0.312-0.056a1299.704 1299.704 0 0 1-9.44 31.656 16 16 0 0 1-12.64 11.008c-33.6 5.6-80.176 5.6-140.08 0.152-12.88-1.176-19.12-16.352-10.8-26.24 54.824-65.096 98.104-192.696 128.512-357.6 21.992-119.256 35.736-255.8 35.736-320.096a16 16 0 1 1 32 0c0 66.352-13.936 204.816-36.264 325.904-27.92 151.36-66.376 272.352-116.416 346.912l-1.016 1.512 1.672 0.104c36.92 2.32 67.216 2.056 90.752-0.72l0.96-0.104 0.56-1.856c24.456-81.04 44.256-176.376 59.36-286l0.536-3.92a16 16 0 0 1 31.704 4.328c-10.08 73.952-22.28 141.648-36.608 203.096a110.456 110.456 0 0 1 52.76-13.256c19.104 0 37.176 4.8 52.736 13.24-14.328-61.44-26.528-129.128-36.608-203.08a16 16 0 0 1 31.632-4.816l0.072 0.496 0.536 3.92c14.928 108.296 34.424 202.656 58.48 283.056l0.88 2.936 0.56 1.856 0.96 0.112c22.616 2.664 51.464 3 86.44 0.968l4.32-0.256 1.664-0.104-1.016-1.512c-50.04-74.56-88.504-195.56-116.416-346.912C773.944 456.816 760 318.352 760 252a16 16 0 0 1 16-16z" fill="#6a6253" /><path d="M594.8 588h234.448a8 8 0 0 1 7.616 5.536l7.768 24a8 8 0 0 1-7.608 10.464h-250a8 8 0 0 1-7.616-10.464l7.776-24a8 8 0 0 1 7.608-5.536z" fill="#ff8cb4" /><path d="M829.248 572H594.8a24 24 0 0 0-22.832 16.608l-7.768 24a24 24 0 0 0 22.832 31.392h250a24 24 0 0 0 22.832-31.392l-7.776-24a24 24 0 0 0-22.832-16.608z m-5.816 32l2.592 8h-228l2.584-8H823.44z" fill="#6a6253" /><path d="M550.584 740h322.88a8 8 0 0 1 7.84 6.432l4.8 24a8 8 0 0 1-7.84 9.568h-332.48a8 8 0 0 1-7.848-9.568l4.8-24a8 8 0 0 1 7.84-6.432z" fill="#ff8cb4" /><path d="M873.464 724h-322.88a24 24 0 0 0-23.536 19.296l-4.8 24a24 24 0 0 0 23.536 28.704h332.48a24 24 0 0 0 23.536-28.704l-4.8-24a24 24 0 0 0-23.536-19.296z m-6.56 32l1.6 8h-312.96l1.6-8h309.76zM713.56 64.096l0.752 0.12 0.552 0.12 0.4 0.104 0.488 0.152 0.36 0.12 0.496 0.192 0.24 0.104 0.52 0.24 0.72 0.4 0.408 0.248 0.544 0.368 0.4 0.304 0.616 0.512 0.36 0.344 0.296 0.304 0.28 0.296 0.36 0.424 0.264 0.344 0.336 0.464 0.232 0.352 0.176 0.304 0.296 0.528c0.184 0.336 0.344 0.688 0.488 1.048l0.128 0.32 0.24 0.72 0.208 0.768 0.144 0.744 0.048 0.336 0.056 0.48 0.032 0.368 0.016 0.488 1.712 71.248c1.552 62.472 2.784 105.36 4.584 157.488l0.584 16.528c4.712 131.04 10.32 219.664 16.832 248.368a12 12 0 1 1-23.408 5.312l-0.416-1.92c-4.48-21.392-8.4-66.72-11.88-132.44l-0.544 10c-3.456 62.288-7.328 104.856-11.76 124.36a12 12 0 1 1-23.4-5.312c6.584-29.016 12.24-119.24 16.984-252.608l1.064-30.92c1.552-46.496 2.704-88.048 4.16-147.36l1.44-59.744 0.056-3.04c0.016-0.4 0.048-0.816 0.096-1.216l0.096-0.632c0.072-0.36 0.152-0.72 0.248-1.072l0.16-0.528a11.84 11.84 0 0 1 0.672-1.616l0.368-0.672 0.256-0.416 0.256-0.384 0.416-0.56 0.512-0.608 0.504-0.528 0.368-0.344 0.4-0.344 0.56-0.44 0.448-0.312 0.608-0.376 0.544-0.296c0.32-0.168 0.664-0.32 1.008-0.464l0.368-0.144 0.64-0.216 0.768-0.2 0.744-0.144 0.336-0.048 0.64-0.08 0.336-0.016 0.36-0.016h0.608c0.416 0.016 0.816 0.048 1.216 0.096zM663.344 296.608a16 16 0 0 1-30.784-8.72l0.36-1.264 0.224-0.824c1.96-7.536 4.128-22.4 6.24-41.784h32.208c-2.608 24.536-5.424 43.2-8.24 52.592zM787.304 285.8l0.216 0.824 0.368 1.256a16 16 0 0 1-30.784 8.72l-0.28-0.96c-2.728-9.672-5.44-27.904-7.968-51.624h32.2c2.112 19.384 4.288 34.24 6.24 41.784z" fill="#6a6253" /><path d="M624.184 300h175.68a8 8 0 0 1 7.76 6.08l5.944 24a8 8 0 0 1-7.768 9.92H618.24a8 8 0 0 1-7.768-9.92l5.944-24a8 8 0 0 1 7.76-6.08z" fill="#ff8cb4" /><path d="M799.856 284H624.184a24 24 0 0 0-23.296 18.232l-5.936 24A24 24 0 0 0 618.24 356h187.552a24 24 0 0 0 23.296-29.768l-5.944-24a24 24 0 0 0-23.296-18.232z m-6.264 32l1.984 8H628.464l1.984-8h163.144z" fill="#6a6253" /><path d="M654.064 180h115.912a8 8 0 0 1 7.952 7.144l5.144 48a8 8 0 0 1-7.952 8.856H648.928a8 8 0 0 1-7.96-8.856l5.144-48a8 8 0 0 1 7.952-7.144z" fill="#ff8cb4" /><path d="M769.976 164H654.064a24 24 0 0 0-23.856 21.44l-5.144 48a24 24 0 0 0 23.864 26.56H775.12a24 24 0 0 0 23.864-26.56l-5.144-48a24 24 0 0 0-23.864-21.44z m-7.192 32l3.432 32H657.824l3.432-32h101.528z" fill="#6a6253" /><path d="M399.904 236v-0.128a60.72 60.72 0 0 1-3.992 0.128C362.824 236 336 209.136 336 176c0-33.136 26.824-60 59.92-60a59.952 59.952 0 0 1 57.008 41.504 39.968 39.968 0 0 1 50.752 35.992l2.976 3.256c6.168 6.72 14.528 14.896 28.176 15.24l0.88 0.008c23.728 0 31.792 23.52 16.448 24H399.904z" fill="#a7e6ff" /><path d="M397.816 120c25.92 0 47.84 17.104 55.2 40.664 3.84-1.296 7.968-2 12.256-2 21.288 0 38.544 17.312 38.544 38.672 0 0.856-0.024 1.704-0.08 2.544l1.008 1.032c5.464 5.456 12.616 10.6 22.888 10.904l0.976 0.016c22.224 0 30.184 22.408 17 24.072l2.392-9.552c-12.912-4.824-25.816-7.232-38.72-7.232-19.368 0-24.208-24.12-38.736-31.36-14.52-7.232-25.512 3.96-31.464 0-7.256-4.816-12.096-33.76-38.72-33.76s-41.152 7.232-50.832 33.76c-9.68 26.536 29.04 48.24 48.408 48.24h-0.12c-31.928 0-57.816-25.968-57.816-58S365.888 120 397.816 120z" fill="#edfaff" /><path d="M104 612a48 48 0 1 1 45.816-62.344 32 32 0 0 1 42.112 32.456l0.84 0.848c4.536 4.52 10.48 8.776 19.008 9.032l0.8 0.008c18.96 0 25.416 19.576 13.176 20H104z" fill="#a7e6ff" /><path d="M104 516a48.024 48.024 0 0 1 45.816 33.656 32 32 0 0 1 42.112 32.456l0.84 0.848c4.536 4.52 10.48 8.776 19.008 9.032l0.8 0.008c18.824 0 25.32 19.304 13.44 19.984l1.984-7.984c-10.664-4-21.336-6-32-6-16 0-20-20-32-26s-21.08 3.28-26 0C132 568 128 544 106 544S72 550 64 572s24 40 40 40h-0.032l-1.76-0.032A48 48 0 0 1 104 516z" fill="#edfaff" /></svg>