<?xml version="1.0" standalone="no"?><!DOCTYPE svg PUBLIC "-//W3C//DTD SVG 1.1//EN" "http://www.w3.org/Graphics/SVG/1.1/DTD/svg11.dtd"><svg class="icon" width="128px" height="108.77px" viewBox="0 0 1205 1024" version="1.1" xmlns="http://www.w3.org/2000/svg"><path d="M1117.16208 822.996942H88.073394a88.269113 88.269113 0 0 1-88.073394-88.073395V107.64526A107.840979 107.840979 0 0 1 107.64526 0h1009.51682a88.269113 88.269113 0 0 1 88.073394 88.073394v646.850153a88.269113 88.269113 0 0 1-88.073394 88.073395zM107.64526 58.715596A48.929664 48.929664 0 0 0 58.715596 107.64526v627.278287a29.357798 29.357798 0 0 0 29.357798 29.357799h1029.088686a29.357798 29.357798 0 0 0 29.357798-29.357799V88.073394a29.357798 29.357798 0 0 0-29.357798-29.357798z" fill="#3d3d3d" /><path d="M1032.611621 1024H156.574924a39.143731 39.143731 0 1 1 0-78.287462h876.036697a39.143731 39.143731 0 0 1 0 78.287462z" fill="#f683a2" /></svg>