<?xml version="1.0" standalone="no"?><!DOCTYPE svg PUBLIC "-//W3C//DTD SVG 1.1//EN" "http://www.w3.org/Graphics/SVG/1.1/DTD/svg11.dtd"><svg t="1609898894159" class="icon" viewBox="0 0 1024 1024" version="1.1" xmlns="http://www.w3.org/2000/svg" p-id="3183" xmlns:xlink="http://www.w3.org/1999/xlink" width="200" height="200"><defs><style type="text/css"></style></defs><path d="M938.130286 410.477714H666.331429C771.584 21.357714 593.627429 1.462857 593.627429 1.462857c-75.337143 0-59.757714 59.684571-65.462858 69.558857 0 190.317714-202.093714 339.382857-202.093714 339.382857v539.648c0 53.321143 72.557714 72.411429 101.083429 72.411429h408.502857c38.4 0 69.705143-100.790857 69.705143-100.790857 101.083429-343.625143 101.083429-445.878857 101.083428-445.878857 0-71.021714-68.315429-65.316571-68.315428-65.316572z m-723.675429 0.146286H51.638857c-33.645714 0-34.084571 33.060571-34.084571 33.060571l33.645714 544.182858c0 34.669714 34.669714 34.669714 34.669714 34.669714H226.742857c29.403429 0 29.110857-22.893714 29.110857-22.893714V451.876571c0-41.764571-41.398857-41.252571-41.398857-41.252571z" p-id="3184" fill="#ff5777"></path></svg>