<?xml version="1.0" standalone="no"?><!DOCTYPE svg PUBLIC "-//W3C//DTD SVG 1.1//EN" "http://www.w3.org/Graphics/SVG/1.1/DTD/svg11.dtd"><svg t="1609898825085" class="icon" viewBox="0 0 1024 1024" version="1.1" xmlns="http://www.w3.org/2000/svg" p-id="2763" xmlns:xlink="http://www.w3.org/1999/xlink" width="200" height="200"><defs><style type="text/css"></style></defs><path d="M904.076 517.655L810.985 890.02a23.203 23.203 0 0 1-22.575 17.617H372.364V482.444L386.7 442.46l97.117-271.15 1.303-3.631 0.884-3.747a61.72 61.72 0 0 1 60.23-47.57h0.07c18.223 0 34.84 7.588 46.778 21.342 11.916 13.777 17.082 31.302 14.522 49.315L575.86 409.04l-11.38 79.686h317.021c9.891 0 15.732 5.609 18.339 8.96a22.76 22.76 0 0 1 4.236 19.968z m-601.53 389.981h-162.91c-12.823 0-23.272-10.426-23.272-23.272V512c0-12.823 10.45-23.273 23.272-23.273h162.91v418.91zM881.5 418.91h-236.52l31.72-221.998c11.357-79.36-50.246-150.366-130.397-150.366h-0.07a131.724 131.724 0 0 0-128.14 101.214l-97.14 271.15H139.636A93.09 93.09 0 0 0 46.546 512v372.364a93.09 93.09 0 0 0 93.09 93.09H788.41a93.09 93.09 0 0 0 90.322-70.493l93.09-372.363c14.686-58.764-29.742-115.689-90.32-115.689z" p-id="2764" fill="#cdcdcd"></path></svg>