<?xml version="1.0" standalone="no"?><!DOCTYPE svg PUBLIC "-//W3C//DTD SVG 1.1//EN" "http://www.w3.org/Graphics/SVG/1.1/DTD/svg11.dtd"><svg t="1609899143662" class="icon" viewBox="0 0 1024 1024" version="1.1" xmlns="http://www.w3.org/2000/svg" p-id="5313" xmlns:xlink="http://www.w3.org/1999/xlink" width="200" height="200"><defs><style type="text/css"></style></defs><path d="M631.466667 674.133333h174.933333c29.866667 0 59.733333-12.8 81.066667-34.133333s29.866667-55.466667 25.6-85.333333l-51.2-324.266667C853.333333 179.2 810.666667 140.8 755.2 140.8H341.333333c-17.066667-4.266667-29.866667 12.8-29.866666 29.866667v401.066666c0 4.266667 0 8.533333 4.266666 12.8l149.333334 324.266667c4.266667 12.8 17.066667 17.066667 29.866666 17.066667 76.8 0 140.8-64 140.8-140.8l-4.266666-110.933334z m128-469.333333c21.333333 0 38.4 12.8 42.666666 34.133333l51.2 324.266667c0 12.8 0 21.333333-8.533333 34.133333-8.533333 8.533333-21.333333 12.8-34.133333 12.8h-209.066667c-17.066667 0-34.133333 12.8-34.133333 34.133334v145.066666c0 34.133333-25.6 64-59.733334 72.533334l-136.533333-298.666667V200.533333l388.266667 4.266667zM311.466667 537.6H234.666667c-21.333333 0-42.666667-17.066667-42.666667-38.4v-256c0-21.333333 17.066667-38.4 42.666667-38.4h76.8v332.8zM341.333333 140.8H234.666667C174.933333 140.8 128 187.733333 128 243.2v251.733333C128 554.666667 174.933333 597.333333 234.666667 597.333333h110.933333c17.066667 0 34.133333-12.8 34.133333-29.866666V170.666667c-4.266667-17.066667-17.066667-29.866667-38.4-29.866667z" p-id="5314" fill="#cdcdcd"></path></svg>