<?xml version="1.0" standalone="no"?><!DOCTYPE svg PUBLIC "-//W3C//DTD SVG 1.1//EN" "http://www.w3.org/Graphics/SVG/1.1/DTD/svg11.dtd"><svg t="1609899167489" class="icon" viewBox="0 0 1024 1024" version="1.1" xmlns="http://www.w3.org/2000/svg" p-id="5494" xmlns:xlink="http://www.w3.org/1999/xlink" width="200" height="200"><defs><style type="text/css"></style></defs><path d="M640 661.333333h170.666667c29.866667 0 59.733333-12.8 76.8-34.133333 21.333333-21.333333 29.866667-51.2 25.6-81.066667l-51.2-320c-8.533333-51.2-51.2-85.333333-102.4-85.333333H354.133333c-12.8-4.266667-25.6 12.8-25.6 29.866667v388.266666c0 4.266667 0 8.533333 4.266667 12.8l145.066667 320c4.266667 12.8 17.066667 17.066667 29.866666 17.066667 76.8 0 140.8-59.733333 140.8-136.533333v-110.933334zM264.533333 136.533333H183.466667c-42.666667 0-76.8 46.933333-76.8 102.4v247.466667c0 55.466667 34.133333 102.4 76.8 102.4h81.066666c12.8 0 21.333333-12.8 21.333334-29.866667V170.666667c0-17.066667-8.533333-34.133333-21.333334-34.133334z" p-id="5495" fill="#ff5777"></path></svg>